<svg width="23" height="20" viewBox="0 0 23 20" fill="none" xmlns="http://www.w3.org/2000/svg">
<path d="M6.20801 0.5C6.95788 0.4998 7.70072 0.647728 8.39355 0.93457C8.99984 1.18563 9.55775 1.53881 10.043 1.97852L10.2461 2.17188L11.5381 3.46387L11.8916 3.11035L12.8252 2.17773C13.9016 1.13607 15.345 0.55902 16.8428 0.571289C18.3404 0.583627 19.773 1.18423 20.832 2.24316C21.8912 3.30232 22.4916 4.73558 22.5039 6.2334C22.5161 7.72852 21.9415 9.16843 20.9033 10.2441L11.7295 19.4209H11.7285C11.7036 19.4459 11.6742 19.4659 11.6416 19.4795C11.6089 19.4931 11.5735 19.5 11.5381 19.5C11.5027 19.5 11.4673 19.4931 11.4346 19.4795C11.402 19.4659 11.3726 19.4459 11.3477 19.4209H11.3467L2.17188 10.2461C1.37342 9.4477 0.829678 8.42971 0.609375 7.32227C0.389202 6.21505 0.502605 5.0674 0.93457 4.02441C1.36667 2.98127 2.09829 2.0892 3.03711 1.46191C3.97567 0.834836 5.07926 0.500158 6.20801 0.5Z" fill="#FF6666" stroke="#F9F9F9"/>
<path d="M4 8.50039C1.00004 5.49993 5.49999 0.999803 9 4.00039" stroke="#F9F9F9" stroke-linecap="round"/>
</svg>
