<svg width="101" height="30" viewBox="0 0 101 30" fill="none" xmlns="http://www.w3.org/2000/svg">
<g clip-path="url(#clip0_2181_302)">
<path d="M27.4766 18.9465C25.8451 18.9465 24.3162 18.2557 22.9272 17.1312L23.2655 15.5437L23.2802 15.4849C23.5813 13.7947 24.5368 10.9577 27.4766 10.9577C29.6813 10.9577 31.4747 12.751 31.4747 14.9557C31.4672 17.1532 29.6741 18.9465 27.4766 18.9465ZM27.4766 6.90825C23.7209 6.90825 20.8108 9.34825 19.6276 13.361C17.8196 10.649 16.4525 7.39335 15.6515 4.65198H11.6094V15.1688C11.6094 17.2414 9.91901 18.9316 7.84646 18.9316C5.77392 18.9316 4.08373 17.2414 4.08373 15.1688V4.65198H0.0411838V15.1688C0.0264779 19.4757 3.53216 23.0106 7.83882 23.0106C12.1457 23.0106 15.6514 19.4757 15.6514 15.1688V13.4051C16.4376 15.0439 17.4004 16.6975 18.569 18.1675L16.0921 29.8086H20.23L22.0231 21.3643C23.5958 22.3712 25.4039 23.0034 27.4764 23.0034C31.908 23.0034 35.5166 19.3728 35.5166 14.941C35.5166 10.5167 31.908 6.90825 27.4764 6.90825H27.4766Z" fill="#6FDA44"/>
<path d="M47.8562 7.364L50.4652 17.8809L53.3389 7.364H56.7636L52.3468 22.5624H48.9219L46.2101 11.9793L43.5054 22.555H40.0807L35.6635 7.35675H39.0883L41.9619 17.8736L44.5709 7.35675H47.856V7.3642L47.8562 7.364ZM64.9581 6.90832C60.5118 6.90832 56.9107 10.5167 56.9107 14.9558C56.9107 19.4022 60.5191 23.0034 64.9581 23.0034C69.4046 23.0034 73.013 19.4022 73.013 14.9558C73.013 10.5095 69.4046 6.90832 64.9581 6.90832ZM64.9581 19.6962C62.3418 19.6962 60.2252 17.5795 60.2252 14.9632C60.2252 12.3467 62.3491 10.2303 64.9581 10.2303C67.5746 10.2303 69.691 12.3467 69.691 14.9632C69.691 17.5722 67.5746 19.6962 64.9581 19.6962ZM82.7949 10.7667C80.4947 10.7667 78.6353 12.6334 78.6353 14.9264V22.555H75.1883V7.364H78.6353V9.70106C78.6353 9.70106 80.1051 7.35655 83.1257 7.35655H84.1839V10.7667H82.7949ZM94.3629 14.3679C96.81 12.9862 98.4712 10.3624 98.4712 7.35655H95.0241C95.0241 9.89204 92.9665 11.9499 90.431 11.9499H89.9679V0.0292969H86.5212V22.5548H89.9679V15.3967H90.3796C90.7177 15.3967 91.1586 15.6173 91.3571 15.8891L96.2516 22.555H100.382L94.3629 14.3679Z" fill="black"/>
</g>
<defs>
<clipPath id="clip0_2181_302">
<rect width="100.402" height="30" fill="white"/>
</clipPath>
</defs>
</svg>
